<svg width="36" height="32" viewBox="0 0 36 32" fill="none" xmlns="http://www.w3.org/2000/svg">
<g clip-path="url(#clip0_1410_97)">
<path d="M29.5415 10.3612C29.1591 10.23 28.7735 10.1085 28.385 9.99675C28.4502 9.73008 28.5103 9.46664 28.5637 9.20784C29.4392 4.95787 28.8668 1.53401 26.9119 0.406712C25.0375 -0.673989 21.9721 0.452888 18.8762 3.1472C18.5711 3.41322 18.2728 3.68689 17.9815 3.96798C17.7865 3.78107 17.588 3.59778 17.3862 3.41822C14.1416 0.537379 10.8894 -0.676796 8.93656 0.45373C7.06386 1.5378 6.50933 4.75647 7.29754 8.78426C7.37596 9.18317 7.46451 9.58002 7.56309 9.97443C7.10274 10.1052 6.65853 10.2445 6.2334 10.3927C2.42933 11.719 0 13.7974 0 15.9534C0 18.18 2.608 20.4135 6.57011 21.7677C6.89132 21.877 7.21521 21.9784 7.54147 22.0716C7.43551 22.4964 7.34144 22.924 7.25937 23.3541C6.50793 27.312 7.09474 30.4546 8.96239 31.5318C10.8914 32.6442 14.129 31.5009 17.2814 28.7451C17.537 28.5211 17.787 28.2907 18.0312 28.0542C18.3466 28.3585 18.6705 28.654 19.0024 28.9403C22.0561 31.568 25.072 32.629 26.9378 31.5489C28.865 30.4332 29.4914 27.0572 28.6782 22.9499C28.6141 22.6281 28.5423 22.3079 28.4627 21.9896C28.6901 21.9222 28.9133 21.8529 29.1308 21.7807C33.2498 20.4161 35.9298 18.2098 35.9298 15.9534C35.9298 13.7896 33.422 11.6971 29.5415 10.3612V10.3612ZM28.6481 20.3239C28.4516 20.3889 28.2501 20.4516 28.0446 20.5127C27.5899 19.0731 26.9763 17.5424 26.2253 15.9608C26.9419 14.417 27.5319 12.9058 27.9739 11.4756C28.3415 11.582 28.6981 11.6942 29.042 11.8125C32.3669 12.9572 34.3949 14.6494 34.3949 15.9534C34.3949 17.3423 32.2046 19.1454 28.6481 20.3239V20.3239ZM27.1725 23.248C27.5321 25.0641 27.5833 26.7062 27.3451 27.99C27.1312 29.1436 26.7009 29.9125 26.1687 30.2206C25.0365 30.876 22.615 30.0241 20.0035 27.7768C19.6948 27.5106 19.3935 27.2359 19.1001 26.953C20.1126 25.8457 21.1244 24.5586 22.1119 23.129C23.8488 22.9749 25.4898 22.7228 26.978 22.3788C27.0497 22.6669 27.1145 22.9568 27.1725 23.248V23.248ZM12.2493 30.1073C11.143 30.4979 10.2619 30.5092 9.72926 30.2021C8.59593 29.5485 8.12477 27.0251 8.76744 23.6404C8.84383 23.2404 8.93131 22.8427 9.02975 22.4476C10.5015 22.7732 12.1305 23.0073 13.8716 23.1485C14.8658 24.5473 15.9068 25.8331 16.9559 26.959C16.733 27.1747 16.5047 27.3849 16.2714 27.5894C14.8773 28.808 13.4804 29.6725 12.2493 30.1073V30.1073ZM7.06667 20.3153C5.31467 19.7165 3.86779 18.9382 2.87607 18.089C1.98484 17.3259 1.53502 16.5681 1.53502 15.9534C1.53502 14.645 3.48547 12.9763 6.73867 11.8421C7.13347 11.7045 7.54667 11.5747 7.97544 11.4529C8.42512 12.9153 9.01488 14.4445 9.7266 15.9907C9.00561 17.5598 8.40744 19.1134 7.9534 20.5931C7.65559 20.5078 7.35993 20.4152 7.06667 20.3153V20.3153ZM8.80393 8.48938C8.1287 5.03857 8.57712 2.43548 9.70568 1.78215C10.9076 1.08629 13.5656 2.07843 16.3672 4.56601C16.5498 4.72859 16.7296 4.89447 16.9062 5.06355C15.8623 6.18454 14.8309 7.46075 13.8455 8.85134C12.1556 9.00798 10.5381 9.25948 9.05095 9.59647C8.95932 9.22962 8.87696 8.86052 8.80393 8.48952V8.48938ZM24.3025 12.3165C23.9512 11.7097 23.5869 11.1106 23.2098 10.5196C24.3562 10.6645 25.4546 10.857 26.486 11.0922C26.1764 12.0847 25.7905 13.1224 25.3361 14.1862C25.0041 13.5562 24.6594 12.9328 24.3025 12.3165V12.3165ZM17.9822 6.16054C18.6901 6.92755 19.3992 7.78384 20.0966 8.71296C18.6818 8.64614 17.2647 8.64586 15.85 8.71212C16.5481 7.79155 17.2632 6.9364 17.9822 6.16054ZM11.6213 12.327C11.2688 12.9383 10.9306 13.5578 10.607 14.185C10.1601 13.1249 9.77768 12.0825 9.4654 11.0759C10.4905 10.8466 11.5837 10.6591 12.7228 10.5167C12.3415 11.1114 11.9743 11.7149 11.6213 12.3269V12.327ZM12.7555 21.4992C11.5787 21.3678 10.4691 21.19 9.44421 20.9669C9.7614 19.9423 10.1523 18.8777 10.6088 17.7949C10.9337 18.4225 11.2733 19.0424 11.6274 19.654C11.9914 20.2828 12.3684 20.8986 12.7555 21.4992ZM18.0246 25.8543C17.297 25.0695 16.5714 24.2011 15.8627 23.2672C16.5507 23.2942 17.2521 23.3079 17.9649 23.3079C18.6973 23.3079 19.4212 23.2915 20.1338 23.2598C19.4341 24.2105 18.7277 25.0801 18.0246 25.8543ZM25.3506 17.7396C25.8309 18.8344 26.2356 19.8933 26.5571 20.9003C25.5154 21.1381 24.3906 21.3295 23.2055 21.4717C23.5852 20.8697 23.953 20.2601 24.3085 19.6435C24.6699 19.0167 25.0174 18.3819 25.3506 17.7396V17.7396ZM22.9789 18.8766C22.4347 19.8221 21.8598 20.7496 21.2553 21.6577C20.1602 21.7352 19.0627 21.7737 17.9649 21.7732C16.8467 21.7732 15.7592 21.7384 14.7119 21.6704C14.0915 20.7644 13.5057 19.8353 12.9556 18.885H12.9558C12.4083 17.9398 11.8969 16.9741 11.4227 15.99C11.8957 15.0057 12.4055 14.0396 12.9512 13.0936L12.951 13.0937C13.4964 12.1475 14.0776 11.2224 14.6932 10.3203C15.7617 10.2394 16.8574 10.1973 17.9648 10.1973H17.9649C19.0773 10.1973 20.1745 10.2398 21.2427 10.3212C21.8521 11.222 22.4295 12.144 22.9739 13.0854C23.5213 14.0293 24.0379 14.9908 24.5228 15.9683C24.0429 16.9557 23.5279 17.9258 22.9789 18.8766V18.8766ZM26.1453 1.7364C27.3484 2.43029 27.8163 5.22847 27.0604 8.89794C27.0121 9.13205 26.9579 9.3705 26.8989 9.61233C25.4081 9.26819 23.7895 9.01233 22.0947 8.85331C21.1075 7.44741 20.0845 6.16924 19.0575 5.06271C19.3267 4.80327 19.6022 4.55057 19.8839 4.30482C22.5366 1.99647 25.0157 1.08503 26.1453 1.7364V1.7364ZM17.9649 12.745C19.7368 12.745 21.1733 14.1814 21.1733 15.9534C21.1733 17.7253 19.7368 19.1618 17.9649 19.1618C16.193 19.1618 14.7565 17.7253 14.7565 15.9534C14.7565 14.1814 16.193 12.745 17.9649 12.745V12.745Z" fill="#8257E6"/>
</g>
<defs>
<clipPath id="clip0_1410_97">
<rect width="35.93" height="32" fill="white"/>
</clipPath>
</defs>
</svg>
